<?xml version="1.0" encoding="utf-8"?>
<!-- Generator: Adobe Illustrator 17.1.0, SVG Export Plug-In . SVG Version: 6.00 Build 0)  -->
<!DOCTYPE svg PUBLIC "-//W3C//DTD SVG 1.1//EN" "http://www.w3.org/Graphics/SVG/1.1/DTD/svg11.dtd">
<svg version="1.1" id="Layer_1" xmlns="http://www.w3.org/2000/svg" xmlns:xlink="http://www.w3.org/1999/xlink" x="0px" y="0px"
	 viewBox="5 121.8 582.1 171" enable-background="new 5 121.8 582.1 171" xml:space="preserve">
<g>
	<path fill="#FFD800" d="M5,121.8h119.4v171H5V121.8L5,121.8z M22.2,275.6h84.9V139H22.2V275.6L22.2,275.6z"/>
	<path fill="#FFFFFF" d="M203.6,198.5h-7.4c-9.7-13.7-19.3-27.3-28.9-42.7h-0.1v42.7h-8.2V139h7.4c9.7,13.6,19.3,27.1,28.8,42.4h0.2
		V139h8.2L203.6,198.5L203.6,198.5z"/>
	<path fill="#FFFFFF" d="M223,174.9c2.4-7.8,4.8-15.1,6.9-24.2h0.2c2.4,9.2,4.5,16.4,6.7,24.2H223L223,174.9z M227,139l-20.6,59.5
		h8.8l5.2-16.2h18l4.7,16.2h11.4l-19-59.5H227L227,139z"/>
	<polygon fill="#FFFFFF" points="264,198.5 264,146.9 248.4,146.9 248.4,139 289.9,139 289.9,146.9 274.2,146.9 274.2,198.5 	"/>
	<polygon fill="#FFFFFF" points="293.2,139 303.3,139 303.3,198.5 293.2,198.5 	"/>
	<path fill="#FFFFFF" d="M334.8,191c-10.6,0-14.4-11.7-14.4-23.1c0-11,4.2-21.4,14.4-21.4c10.1,0,14.4,10.5,14.4,21.4
		C349.1,179.3,345.4,191,334.8,191L334.8,191z M334.8,199.5c15.6,0,25.2-13.9,25.2-31.6c0-16.7-10.7-29.9-25.2-29.9
		c-14.5,0-25.3,13.3-25.3,29.9C309.5,185.7,319.2,199.5,334.8,199.5L334.8,199.5z"/>
	<path fill="#FFFFFF" d="M410.8,198.5h-7.4c-9.7-13.7-19.3-27.3-28.9-42.7h-0.1v42.7h-8.2V139h7.4c9.7,13.6,19.3,27.1,28.8,42.4h0.2
		V139h8.2L410.8,198.5L410.8,198.5z"/>
	<path fill="#FFFFFF" d="M430.2,174.9c2.4-7.8,4.8-15.1,6.9-24.2h0.2c2.4,9.2,4.5,16.4,6.7,24.2H430.2L430.2,174.9z M434.1,139
		l-20.6,59.5h8.9l5.2-16.2h17.9l4.7,16.2h11.4l-19-59.5H434.1L434.1,139z"/>
	<polygon fill="#FFFFFF" points="464.6,139 474.7,139 474.7,190.5 494.8,190.5 494.8,198.5 464.6,198.5 	"/>
	<path fill="#FFFFFF" d="M197.4,248.3v24.6c-5.4,2.1-11.1,3.7-16.9,3.7c-17.5,0-28.6-13.6-28.6-31.1c0-16.3,11.1-30.4,28.9-30.4
		c5.5,0,11,2.1,14.5,4.6l-3.3,7.1c-2.7-1.7-7-3.1-10.9-3.1c-10.9,0-18.3,8.6-18.3,22.1c0,14.1,8.5,22.4,17.3,22.4
		c2.7,0,5-0.3,7.2-1.4v-18.3L197.4,248.3L197.4,248.3z"/>
	<polygon fill="#FFFFFF" points="233.9,224 216.8,224 216.8,240.3 233.5,240.3 233.5,248.3 216.8,248.3 216.8,267.5 236.9,267.5 
		236.9,275.5 206.6,275.5 206.6,216 233.9,216 	"/>
	<path fill="#FFFFFF" d="M265.3,268c-10.6,0-14.4-11.7-14.4-23.1c0-11,4.3-21.4,14.4-21.4c10.1,0,14.4,10.5,14.4,21.4
		C279.7,256.3,275.9,268,265.3,268L265.3,268z M265.3,276.5c15.6,0,25.2-13.9,25.2-31.6c0-16.7-10.7-29.9-25.2-29.9
		c-14.6,0-25.3,13.3-25.3,29.9C240.1,262.7,249.8,276.5,265.3,276.5L265.3,276.5z"/>
	<path fill="#FFFFFF" d="M339.6,248.3v24.6c-5.5,2.1-11.1,3.7-16.9,3.7c-17.5,0-28.6-13.6-28.6-31.1c0-16.3,11.1-30.4,28.9-30.4
		c5.5,0,11,2.1,14.4,4.6l-3.3,7.1c-2.7-1.7-6.9-3.1-10.9-3.1c-10.9,0-18.3,8.6-18.3,22.1c0,14.1,8.5,22.4,17.3,22.4
		c2.7,0,5-0.3,7.1-1.4v-18.3L339.6,248.3L339.6,248.3z"/>
	<path fill="#FFFFFF" d="M359.1,224h4.5c6,0,9.4,3.5,9.4,9.6c0,8-4.8,11.6-9.7,11.8c-1,0.1-3.4,0.2-4.2,0.3L359.1,224L359.1,224z
		 M385,275.5l-12-24.7c6.6-3.5,10.3-10.6,10.3-17.7c0-11.6-7.1-17.2-18.5-17.2h-15.9v59.5h10.2v-22.5h4.6l9.6,22.5L385,275.5
		L385,275.5z"/>
	<path fill="#FFFFFF" d="M401.8,251.9c2.4-7.8,4.8-15.1,6.9-24.2h0.2c2.4,9.2,4.5,16.4,6.7,24.2H401.8L401.8,251.9z M405.7,216
		l-20.6,59.5h8.8l5.2-16.3h18l4.7,16.3h11.4l-19-59.5H405.7L405.7,216z"/>
	<path fill="#FFFFFF" d="M452.3,216h-15.9v59.5h10.2v-22.5h4.6c12.2,0,19.6-9.9,19.6-19.9C470.8,221.6,463.7,216,452.3,216
		L452.3,216z M450.9,245.4c-1.1,0.1-3.6,0.2-4.3,0.2V224h4.6c6,0,9.4,3.5,9.4,9.6C460.6,241.6,455.7,245.1,450.9,245.4L450.9,245.4z
		"/>
	<polygon fill="#FFFFFF" points="518.1,275.5 507.9,275.5 507.9,246.9 486.7,246.9 486.7,275.5 476.6,275.5 476.6,216 486.7,216 
		486.7,238.9 507.9,238.9 507.9,216.1 518.1,216.1 	"/>
	<polygon fill="#FFFFFF" points="527.8,216 538,216 538,275.5 527.8,275.5 	"/>
	<path fill="#FFFFFF" d="M583.9,226.8c-2.5-1.5-6.5-3.3-10.5-3.3c-10.4,0-17.9,8.6-17.9,22.1c0,14.1,8.3,22.4,18.2,22.4
		c3.9,0,7.6-1.3,10.2-3l2.8,7.4c-3.1,2.1-8.5,4.1-13.4,4.1c-17.5,0-28.6-13.6-28.6-31.1c0-16.3,11-30.4,28.7-30.4
		c5.3,0,10.2,2.2,13.7,4.6L583.9,226.8L583.9,226.8z"/>
</g>
</svg>
